<svg width="512" height="512" viewBox="0 0 512 512" fill="none" xmlns="http://www.w3.org/2000/svg">
  <circle cx="256" cy="256" r="120" fill="#223142"/>
  <circle cx="256" cy="256" r="118" stroke="#3A536B" stroke-width="4"/>

  <circle cx="214" cy="216" r="10" fill="#F4F7FA"/>
  <circle cx="252" cy="216" r="10" fill="#F4F7FA"/>

  <rect x="192" y="248" width="60" height="44" rx="12" fill="#F4F7FA"/>
  <rect x="264" y="248" width="60" height="44" rx="12" fill="#C8923B"/>

  <rect x="192" y="304" width="38" height="38" rx="10" fill="#F4F7FA"/>
  <rect x="239" y="304" width="38" height="38" rx="10" fill="#F4F7FA"/>
  <rect x="286" y="304" width="38" height="38" rx="10" fill="#F4F7FA"/>

  <path d="M298 196L326 224L298 252H282L305 224L282 196H298Z" fill="#C8923B"/>
  <path d="M322 196L350 224L322 252H306L329 224L306 196H322Z" fill="#E4C07B"/>

  <rect x="226" y="360" width="60" height="8" rx="4" fill="#E4C07B"/>
</svg>
